<svg height="682pt" viewBox="-60 -21 682 682.667" width="682pt" xmlns="http://www.w3.org/2000/svg"><path d="M279 190c-72.371 0-131.25 58.875-131.25 131.25S206.629 452.5 279 452.5c72.375 0 131.25-58.875 131.25-131.25S351.375 190 279 190zm-18.75 214.125l-69.375-69.75 26.25-26.25 43.125 42.75 80.629-80.25 26.246 26.25zM279 190c-72.371 0-131.25 58.875-131.25 131.25S206.629 452.5 279 452.5c72.375 0 131.25-58.875 131.25-131.25S351.375 190 279 190zm-18.75 214.125l-69.375-69.75 26.25-26.25 43.125 42.75 80.629-80.25 26.246 26.25zM279 0L-2.25 118.871V223c0 180.375 107.629 342.746 273.75 413.996L279 640l7.5-3.004C452.625 565.746 560.25 403.375 560.25 223V118.871zm0 490c-92.996 0-168.75-75.75-168.75-168.75 0-93.004 75.754-168.75 168.75-168.75 93 0 168.75 75.746 168.75 168.75C447.75 414.25 372 490 279 490zm0-300c-72.371 0-131.25 58.875-131.25 131.25S206.629 452.5 279 452.5c72.375 0 131.25-58.875 131.25-131.25S351.375 190 279 190zm-18.75 214.125l-69.375-69.75 26.25-26.25 43.125 42.75 80.629-80.25 26.246 26.25zM279 190c-72.371 0-131.25 58.875-131.25 131.25S206.629 452.5 279 452.5c72.375 0 131.25-58.875 131.25-131.25S351.375 190 279 190zm-18.75 214.125l-69.375-69.75 26.25-26.25 43.125 42.75 80.629-80.25 26.246 26.25zM279 190c-72.371 0-131.25 58.875-131.25 131.25S206.629 452.5 279 452.5c72.375 0 131.25-58.875 131.25-131.25S351.375 190 279 190zm-18.75 214.125l-69.375-69.75 26.25-26.25 43.125 42.75 80.629-80.25 26.246 26.25zm0 0"/></svg>