<svg id="Capa_1" enable-background="new 0 0 513.09 513.09" height="512" viewBox="0 0 513.09 513.09" width="512" xmlns="http://www.w3.org/2000/svg"><g><path d="m75.045 359.638v152.481h360v-152.481l-165 30v32.481h-30v-32.481z"/><path d="m330.045 202.849-8.292-4.146c-1.354-.677-33.548-16.583-66.708-16.583s-65.354 15.906-66.708 16.583l-8.292 4.146v39.271h-105v87.027l180 32.727 180-32.727v-87.027h-105zm-30 39.27h-90v-20.168c10.054-3.978 27.779-9.832 45-9.832 17.225 0 34.953 5.857 45 9.831z"/><path d="m30.932 215.006 50.049-15.669 50.05 15.669.564-52.441 30.368-42.758-49.701-16.742-31.281-42.094-31.28 42.094-49.701 16.742 30.368 42.758z"/><path d="m255.045.971-31.281 42.094-49.701 16.742 30.369 42.758.564 52.441 50.049-15.669 50.05 15.669.563-52.442 30.368-42.757-49.701-16.742z"/><path d="m432.108 60.971-31.28 42.094-49.701 16.742 30.368 42.757.564 52.442 50.049-15.669 50.049 15.669.564-52.441 30.369-42.758-49.701-16.742z"/></g></svg>