<svg id="Capa_1" enable-background="new 0 0 512.059 512.059" height="512" viewBox="0 0 512.059 512.059" width="512" xmlns="http://www.w3.org/2000/svg"><g><path d="m391.062 135c0-74.443-60.557-135-135-135s-135 60.557-135 135 60.557 135 135 135 135-60.557 135-135zm-192.173 79.277 10.84-63.164-45.894-44.722 63.413-9.243 28.374-57.451 28.359 57.451 63.442 9.229-45.908 44.736 10.84 63.164-56.733-29.824z"/><path d="m264.06 124.57-8.437-17.109-8.452 17.109-18.882 2.74 13.667 13.315-3.223 18.809 16.89-8.877 16.889 8.877-3.222-18.809 13.652-13.301z"/><path d="m240.029 512.059v-122.095c0-20.156-8.218-39.712-22.531-53.643-3.021-2.937-44.806-43.535-41.783-40.598-23.696-23.694-62.113-23.696-85.811 0 3.788 3.788 78.289 78.29 75.196 75.198l-21.209 21.211-83.862-83.862c0-4.431 0-134.006 0-126.211 0-33.138-26.863-60-60-60 0 6.442 0 188.712 0 184.805 0 15.396 4.79 30.308 13.841 43.125l67.927 96.504c5.303 7.28 8.231 16.406 8.232 25.664v39.902z"/><path d="m422.027 472.156c.002-9.258 2.93-18.384 8.232-25.664l67.927-96.504c9.051-12.817 13.843-27.729 13.843-43.125 0 3.907 0-178.363 0-184.805-33.138 0-60.002 26.862-60 60 0-7.795 0 121.78 0 126.211l-83.862 83.862-21.211-21.211c-3.093 3.093 71.409-71.409 75.196-75.198-23.696-23.696-62.115-23.694-85.811 0 3.023-2.937-38.76 37.661-41.783 40.598-14.312 13.931-22.529 33.486-22.529 53.643v122.095h149.998z"/></g></svg>