<svg height="682pt" viewBox="-60 -21 682 682.66669" width="682pt" xmlns="http://www.w3.org/2000/svg"><path d="m279 190c-72.371094 0-131.25 58.875-131.25 131.25s58.878906 131.25 131.25 131.25c72.375 0 131.25-58.875 131.25-131.25s-58.875-131.25-131.25-131.25zm-18.75 214.125-69.375-69.75 26.25-26.25 43.125 42.75 80.628906-80.25 26.246094 26.25zm18.75-214.125c-72.371094 0-131.25 58.875-131.25 131.25s58.878906 131.25 131.25 131.25c72.375 0 131.25-58.875 131.25-131.25s-58.875-131.25-131.25-131.25zm-18.75 214.125-69.375-69.75 26.25-26.25 43.125 42.75 80.628906-80.25 26.246094 26.25zm18.75-404.125-281.25 118.871094v104.128906c0 180.375 107.628906 342.746094 273.75 413.996094l7.5 3.003906 7.5-3.003906c166.125-71.25 273.75-233.621094 273.75-413.996094v-104.128906zm0 490c-92.996094 0-168.75-75.75-168.75-168.75 0-93.003906 75.753906-168.75 168.75-168.75 93 0 168.75 75.746094 168.75 168.75 0 93-75.75 168.75-168.75 168.75zm0-300c-72.371094 0-131.25 58.875-131.25 131.25s58.878906 131.25 131.25 131.25c72.375 0 131.25-58.875 131.25-131.25s-58.875-131.25-131.25-131.25zm-18.75 214.125-69.375-69.75 26.25-26.25 43.125 42.75 80.628906-80.25 26.246094 26.25zm18.75-214.125c-72.371094 0-131.25 58.875-131.25 131.25s58.878906 131.25 131.25 131.25c72.375 0 131.25-58.875 131.25-131.25s-58.875-131.25-131.25-131.25zm-18.75 214.125-69.375-69.75 26.25-26.25 43.125 42.75 80.628906-80.25 26.246094 26.25zm18.75-214.125c-72.371094 0-131.25 58.875-131.25 131.25s58.878906 131.25 131.25 131.25c72.375 0 131.25-58.875 131.25-131.25s-58.875-131.25-131.25-131.25zm-18.75 214.125-69.375-69.75 26.25-26.25 43.125 42.75 80.628906-80.25 26.246094 26.25zm0 0"/></svg>