<svg xmlns="http://www.w3.org/2000/svg" viewBox="0 0 64 64" width="512" height="512"><g id="AC"><path d="M10 16h44a1 1 0 001-1v-5H9v5a1 1 0 001 1z"/><path d="M59 10h-2v5a3.009 3.009 0 01-3 3H10a3.009 3.009 0 01-3-3v-5H5a5 5 0 00-5 5v15h64V15a5 5 0 00-5-5zM41 27H23a1 1 0 010-2h18a1 1 0 010 2zm-23 5h28v8H18zm30 8h11a5.006 5.006 0 005-5v-3H48zm7-5h3a1 1 0 010 2h-3a1 1 0 010-2zM0 35a5.006 5.006 0 005 5h11v-8H0zm34 8a1 1 0 00-2 0 2.585 2.585 0 01-.781 1.875 4.615 4.615 0 000 6.25A2.585 2.585 0 0132 53a1 1 0 002 0 4.529 4.529 0 00-1.219-3.125 2.641 2.641 0 010-3.75A4.529 4.529 0 0034 43zm6 0a1 1 0 00-2 0 2.585 2.585 0 01-.781 1.875 4.615 4.615 0 000 6.25A2.585 2.585 0 0138 53a1 1 0 002 0 4.529 4.529 0 00-1.219-3.125 2.641 2.641 0 010-3.75A4.529 4.529 0 0040 43zm6 0a1 1 0 00-2 0 2.585 2.585 0 01-.781 1.875 4.615 4.615 0 000 6.25A2.585 2.585 0 0144 53a1 1 0 002 0 4.529 4.529 0 00-1.219-3.125 2.641 2.641 0 010-3.75A4.529 4.529 0 0046 43zm6 0a1 1 0 00-2 0 2.585 2.585 0 01-.781 1.875 4.615 4.615 0 000 6.25A2.585 2.585 0 0150 53a1 1 0 002 0 4.529 4.529 0 00-1.219-3.125 2.641 2.641 0 010-3.75A4.529 4.529 0 0052 43zm-36 0a1 1 0 00-2 0 2.585 2.585 0 01-.781 1.875 4.615 4.615 0 000 6.25A2.585 2.585 0 0114 53a1 1 0 002 0 4.529 4.529 0 00-1.219-3.125 2.641 2.641 0 010-3.75A4.529 4.529 0 0016 43zm6 0a1 1 0 00-2 0 2.585 2.585 0 01-.781 1.875 4.615 4.615 0 000 6.25A2.585 2.585 0 0120 53a1 1 0 002 0 4.529 4.529 0 00-1.219-3.125 2.641 2.641 0 010-3.75A4.529 4.529 0 0022 43zm6 0a1 1 0 00-2 0 2.585 2.585 0 01-.781 1.875 4.615 4.615 0 000 6.25A2.585 2.585 0 0126 53a1 1 0 002 0 4.529 4.529 0 00-1.219-3.125 2.641 2.641 0 010-3.75A4.529 4.529 0 0028 43z"/></g></svg>