<svg version="1.1" id="Layer_1" xmlns="http://www.w3.org/2000/svg" x="0" y="0" viewBox="0 0 512 512" xml:space="preserve"><path d="M434.948 260.667l-.01-.01-93.927-86.094c-10.232-9.379-22.328-15.997-35.259-20.202 21.457-15.514 35.582-40.585 35.582-69.027C341.333 38.281 303.052 0 256 0s-85.333 38.281-85.333 85.333c0 28.443 14.125 53.513 35.582 69.027-12.931 4.204-25.027 10.823-35.259 20.202l-93.938 86.104A40.425 40.425 0 0064 290.365c0 22.219 18.083 40.302 41.063 40.302 10.604 0 20.99-4.302 28.49-11.802l38.24-38.24c1.208 13.021 3.385 25.635 6.51 37.75l-38.417 53.333c-14.927 19.896-15.677 47.156-1.885 67.854l36.885 55.323C182.021 505.604 193.969 512 206.938 512c21.167 0 38.396-17.229 38.396-38.396v-5.208c0-8.677-2.99-17.198-8.406-23.99l-29.729-37.146 16.771-12.573c20.292 14.146 43.771 14.146 64.063 0l16.76 12.573-29.719 37.156a38.576 38.576 0 00-8.406 23.979v5.208c0 21.167 17.229 38.396 38.49 38.396a38.295 38.295 0 0031.948-17.104l37.313-55.969c13.542-20.302 12.802-47.073-1.719-66.448l-39-54.115c3.125-12.104 5.302-24.719 6.51-37.74l38.24 38.24c7.5 7.5 17.885 11.802 29.25 11.802 22.219 0 40.302-18.083 40.302-40.302a40.43 40.43 0 00-13.054-29.696zM256 384c-22.25 0-43.583-25.219-55.135-64h110.271c-11.553 38.781-32.886 64-55.136 64z"/></svg>