<svg xmlns="http://www.w3.org/2000/svg" version="1.1" id="Layer_1" x="0" y="0" viewBox="0 0 512.336 512.336" xml:space="preserve" width="512" height="512"><g id="XMLID_1031_"><g id="XMLID_971_"><g id="XMLID_977_"><path id="XMLID_1030_" d="M457.671 98.001h15.83c5.522 0 10-4.478 10-10s-4.478-10-10-10h-38c-5.522 0-10 4.478-10 10v38c0 5.522 4.478 10 10 10s10-4.478 10-10v-11.003c30.342 40.621 46.835 89.908 46.835 141.17 0 130.224-105.944 236.168-236.168 236.168S20 386.392 20 256.168 125.944 20 256.168 20c9.631 0 19.324.585 28.812 1.738 5.475.662 10.468-3.237 11.134-8.72.667-5.482-3.237-10.468-8.72-11.134A259.806 259.806 0 00256.168 0C187.743 0 123.413 26.646 75.03 75.03 26.646 123.413 0 187.743 0 256.168s26.646 132.755 75.03 181.138c48.383 48.384 112.713 75.03 181.138 75.03s132.755-26.646 181.138-75.03c48.384-48.383 75.03-112.713 75.03-181.138 0-57.741-19.29-113.173-54.665-158.167z"/><path id="XMLID_1029_" d="M108.472 151.013c-4.667-2.954-10.844-1.564-13.799 3.1-22.829 36.056-32.935 79.418-28.456 122.099 4.545 43.314 24.04 84.16 54.894 115.015 37.235 37.235 86.146 55.853 135.058 55.853s97.822-18.617 135.058-55.853c74.471-74.471 74.471-195.645 0-270.115-30.807-30.806-71.586-50.294-114.828-54.874-42.602-4.515-85.917 5.512-121.958 28.229-4.673 2.945-6.072 9.12-3.128 13.792 2.945 4.673 9.12 6.072 13.792 3.128 67.938-42.82 155.105-33.007 211.979 23.867 66.673 66.673 66.673 175.157 0 241.83-66.672 66.674-175.158 66.674-241.83 0-56.088-56.088-66.048-145.361-23.682-212.271 2.953-4.667 1.566-10.845-3.1-13.8z"/><path id="XMLID_1028_" d="M386.169 266.33h12.332c5.522 0 10-4.478 10-10s-4.478-10-10-10h-12.332c-5.522 0-10 4.478-10 10s4.477 10 10 10z"/><path id="XMLID_1004_" d="M103.835 256.006c0 5.522 4.478 10 10 10h12.332c5.522 0 10-4.478 10-10s-4.478-10-10-10h-12.332c-5.522 0-10 4.477-10 10z"/><path id="XMLID_1001_" d="M266.33 126.167v-12.332c0-5.522-4.478-10-10-10s-10 4.478-10 10v12.332c0 5.522 4.478 10 10 10s10-4.478 10-10z"/><path id="XMLID_1415_" d="M246.006 386.169v12.332c0 5.522 4.478 10 10 10s10-4.478 10-10v-12.332c0-5.522-4.478-10-10-10s-10 4.477-10 10z"/><path id="XMLID_996_" d="M206.044 191.901c-3.906-3.904-10.236-3.904-14.143 0-3.905 3.905-3.905 10.237 0 14.143l33.891 33.891a34.234 34.234 0 00-4.074 16.233c0 18.996 15.454 34.45 34.45 34.45s34.45-15.454 34.45-34.45a34.246 34.246 0 00-4.074-16.233l68.383-68.383c3.905-3.905 3.905-10.237 0-14.143-3.906-3.904-10.236-3.904-14.143 0l-68.383 68.383c-4.84-2.597-10.367-4.074-16.233-4.074s-11.393 1.478-16.233 4.074l-33.891-33.891zm64.574 64.267c0 7.968-6.482 14.45-14.45 14.45s-14.45-6.482-14.45-14.45 6.482-14.45 14.45-14.45 14.45 6.482 14.45 14.45z"/><path id="XMLID_980_" d="M135.248 135.248c1.87-1.86 2.939-4.44 2.939-7.07s-1.069-5.2-2.939-7.07a10.064 10.064 0 00-7.07-2.93c-2.63 0-5.21 1.07-7.07 2.93a10.08 10.08 0 00-2.93 7.07c0 2.64 1.07 5.21 2.93 7.07a10.08 10.08 0 007.07 2.93c2.639 0 5.21-1.071 7.07-2.93z"/><path id="XMLID_979_" d="M325.438 29.878a10.04 10.04 0 007.08-2.93 10.06 10.06 0 002.931-7.07c0-2.63-1.07-5.21-2.931-7.07a10.082 10.082 0 00-7.08-2.93c-2.63 0-5.21 1.07-7.069 2.93a10.077 10.077 0 00-2.931 7.07c0 2.64 1.07 5.21 2.931 7.07a10.033 10.033 0 007.069 2.93z"/></g></g></g></svg>