<svg id="Layer_1" height="512" viewBox="0 0 482 482" width="512" xmlns="http://www.w3.org/2000/svg"><path d="M409 0H73C50.356 0 32 18.356 32 41v42a8 8 0 008 8h356.692c4.794 0 8.979 3.618 9.289 8.401A9.001 9.001 0 01397 109H40a8 8 0 00-8 8v324c0 22.644 18.356 41 41 41h336c22.644 0 41-18.356 41-41V41c0-22.644-18.356-41-41-41zM158 65h-14c-4.971 0-9-4.029-9-9s4.029-9 9-9h14c4.971 0 9 4.029 9 9s-4.029 9-9 9zm109 0h-52c-4.971 0-9-4.029-9-9s4.029-9 9-9h52c4.971 0 9 4.029 9 9s-4.029 9-9 9zm71 0h-14c-4.971 0-9-4.029-9-9s4.029-9 9-9h14c4.971 0 9 4.029 9 9s-4.029 9-9 9zm-45.938 75.531a8.999 8.999 0 0112.127 3.866l17.808 34.473a9 9 0 01-3.865 12.126 9 9 0 01-12.127-3.866l-17.808-34.473a8.998 8.998 0 013.865-12.126zM232 153c0-4.971 4.029-9 9-9s9 4.029 9 9v48c0 4.971-4.029 9-9 9s-9-4.029-9-9zm-72.996 25.87l17.808-34.473a8.998 8.998 0 0112.127-3.866 9 9 0 013.865 12.126l-17.808 34.473a9 9 0 11-15.992-8.26zM171 429c-48.523 0-88-39.477-88-88s39.477-88 88-88 88 39.477 88 88-39.477 88-88 88zm98.93-4.868a9 9 0 01-11.458-5.542c-1.634-4.694.848-9.824 5.542-11.458C292.118 397.353 311 370.776 311 341s-18.882-56.352-46.986-66.131a9 9 0 01-5.542-11.458 8.997 8.997 0 0111.458-5.542C305.262 270.163 329 303.57 329 341s-23.738 70.838-59.07 83.132zm70 0a9 9 0 01-11.458-5.542c-1.634-4.694.848-9.824 5.542-11.458C362.118 397.353 381 370.776 381 341s-18.882-56.352-46.986-66.131a9 9 0 01-5.542-11.458 8.997 8.997 0 0111.458-5.542C375.262 270.163 399 303.57 399 341s-23.738 70.838-59.07 83.132z"/></svg>