<svg version="1.1" id="Capa_1" xmlns="http://www.w3.org/2000/svg" x="0" y="0" viewBox="0 0 409.6 409.6" xml:space="preserve"><path d="M307.2 0H102.4C46.085 0 0 46.065 0 102.4v204.8c0 56.315 46.085 102.4 102.4 102.4h204.8c56.315 0 102.4-46.085 102.4-102.4V102.4C409.6 46.065 363.515 0 307.2 0zM204.8 290.13c-47.135 0-85.335-38.216-85.335-85.33 0-47.135 38.2-85.335 85.335-85.335 47.114 0 85.335 38.2 85.335 85.335 0 47.114-38.221 85.33-85.335 85.33zm110.935-170.665c-14.152 0-25.6-11.464-25.6-25.6 0-14.136 11.448-25.6 25.6-25.6 14.152 0 25.6 11.464 25.6 25.6 0 14.136-11.448 25.6-25.6 25.6z"/></svg>