<svg id="Capa_1" height="512" width="512" xmlns="http://www.w3.org/2000/svg"><path d="M48.022 432h25.979v50H48.022v30h415.957v-30h-25.978v-50h25.978v-29.999H48.022zm138.979-248.391h60c0-16.54-13.46-30-30-30s-30 13.46-30 30zM358.001 0v371.998h80V30.002h25.978v-30z"/><path d="M74.001 371.998h254V138.609c0-26.47-21.53-48-48-48-22.09 0-40.75 15.01-46.31 35.36 24.99 7.25 43.31 30.35 43.31 57.64v30h-120v-30c0-28.32 19.72-52.12 46.15-58.39 6.37-36.65 38.4-64.61 76.85-64.61 18.08 0 34.75 6.19 48 16.56V0H48.021v30h25.98zm49.913-91.823h30v49.913h-30z"/></svg>