<svg height="512pt" viewBox="-30 0 512 512" width="512pt" xmlns="http://www.w3.org/2000/svg"><path d="M0 0v512h210.945V0zm158.586 278.664c-8.41 0-14.637-6.871-15-15-.363-8.098 7.152-15 15-15 8.406 0 14.637 6.875 15 15 .363 8.102-7.152 15-15 15zm293.304 28.34V0H240.946v307.004zm-48.245-163.785c8.41 0 14.636 6.875 15 15 .363 8.101-7.153 15-15 15-8.407 0-14.633-6.871-15-15-.364-8.098 7.156-15 15-15zm-162.7 193.785v72.777h210.946v-72.777zm107.567 51.246c-8.41 0-14.637-6.871-15-15-.364-8.102 7.152-15 15-15 8.41 0 14.636 6.875 15 15 .363 8.102-7.153 15-15 15zM240.945 512h210.946v-72.219H240.945zm107.567-51.148c8.41 0 14.636 6.87 15 15 .363 8.097-7.157 15-15 15-8.41 0-14.637-6.875-15-15-.364-8.102 7.152-15 15-15zm0 0"/></svg>