<?xml version="1.0" encoding="UTF-8"?>
<svg xmlns="http://www.w3.org/2000/svg" viewBox="0 0 64 64" width="512" height="512"><g id="AC"><path d="M10,16H54a1,1,0,0,0,1-1V10H9v5A1,1,0,0,0,10,16Z"/><path d="M59,10H57v5a3.009,3.009,0,0,1-3,3H10a3.009,3.009,0,0,1-3-3V10H5a5,5,0,0,0-5,5V30H64V15A5,5,0,0,0,59,10ZM41,27H23a1,1,0,0,1,0-2H41a1,1,0,0,1,0,2Z"/><rect x="18" y="32" width="28" height="8"/><path d="M48,40H59a5.006,5.006,0,0,0,5-5V32H48Zm7-5h3a1,1,0,0,1,0,2H55a1,1,0,0,1,0-2Z"/><path d="M0,35a5.006,5.006,0,0,0,5,5H16V32H0Z"/><path d="M34,43a1,1,0,0,0-2,0,2.585,2.585,0,0,1-.781,1.875,4.615,4.615,0,0,0,0,6.25A2.585,2.585,0,0,1,32,53a1,1,0,0,0,2,0,4.529,4.529,0,0,0-1.219-3.125,2.641,2.641,0,0,1,0-3.75A4.529,4.529,0,0,0,34,43Z"/><path d="M40,43a1,1,0,0,0-2,0,2.585,2.585,0,0,1-.781,1.875,4.615,4.615,0,0,0,0,6.25A2.585,2.585,0,0,1,38,53a1,1,0,0,0,2,0,4.529,4.529,0,0,0-1.219-3.125,2.641,2.641,0,0,1,0-3.75A4.529,4.529,0,0,0,40,43Z"/><path d="M46,43a1,1,0,0,0-2,0,2.585,2.585,0,0,1-.781,1.875,4.615,4.615,0,0,0,0,6.25A2.585,2.585,0,0,1,44,53a1,1,0,0,0,2,0,4.529,4.529,0,0,0-1.219-3.125,2.641,2.641,0,0,1,0-3.75A4.529,4.529,0,0,0,46,43Z"/><path d="M52,43a1,1,0,0,0-2,0,2.585,2.585,0,0,1-.781,1.875,4.615,4.615,0,0,0,0,6.25A2.585,2.585,0,0,1,50,53a1,1,0,0,0,2,0,4.529,4.529,0,0,0-1.219-3.125,2.641,2.641,0,0,1,0-3.75A4.529,4.529,0,0,0,52,43Z"/><path d="M16,43a1,1,0,0,0-2,0,2.585,2.585,0,0,1-.781,1.875,4.615,4.615,0,0,0,0,6.25A2.585,2.585,0,0,1,14,53a1,1,0,0,0,2,0,4.529,4.529,0,0,0-1.219-3.125,2.641,2.641,0,0,1,0-3.75A4.529,4.529,0,0,0,16,43Z"/><path d="M22,43a1,1,0,0,0-2,0,2.585,2.585,0,0,1-.781,1.875,4.615,4.615,0,0,0,0,6.25A2.585,2.585,0,0,1,20,53a1,1,0,0,0,2,0,4.529,4.529,0,0,0-1.219-3.125,2.641,2.641,0,0,1,0-3.75A4.529,4.529,0,0,0,22,43Z"/><path d="M28,43a1,1,0,0,0-2,0,2.585,2.585,0,0,1-.781,1.875,4.615,4.615,0,0,0,0,6.25A2.585,2.585,0,0,1,26,53a1,1,0,0,0,2,0,4.529,4.529,0,0,0-1.219-3.125,2.641,2.641,0,0,1,0-3.75A4.529,4.529,0,0,0,28,43Z"/></g></svg>
