<?xml version="1.0" encoding="iso-8859-1"?>
<!-- Generator: Adobe Illustrator 19.0.0, SVG Export Plug-In . SVG Version: 6.00 Build 0)  -->
<svg version="1.1" id="Layer_1" xmlns="http://www.w3.org/2000/svg" xmlns:xlink="http://www.w3.org/1999/xlink" x="0px" y="0px"
	 viewBox="0 0 512 512" style="enable-background:new 0 0 512 512;" xml:space="preserve">
<g>
	<g>
		<path d="M434.948,260.667l-0.01-0.01l-93.927-86.094c-10.232-9.379-22.328-15.997-35.259-20.202
			c21.457-15.514,35.582-40.585,35.582-69.027C341.333,38.281,303.052,0,256,0s-85.333,38.281-85.333,85.333
			c0,28.443,14.125,53.513,35.582,69.027c-12.931,4.204-25.027,10.823-35.259,20.202l-93.938,86.104
			C68.76,268.281,64,279.104,64,290.365c0,22.219,18.083,40.302,41.063,40.302c10.604,0,20.99-4.302,28.49-11.802l38.24-38.24
			c1.208,13.021,3.385,25.635,6.51,37.75l-38.417,53.333c-14.927,19.896-15.677,47.156-1.885,67.854l36.885,55.323
			C182.021,505.604,193.969,512,206.938,512c21.167,0,38.396-17.229,38.396-38.396v-5.208c0-8.677-2.99-17.198-8.406-23.99
			l-29.729-37.146l16.771-12.573c20.292,14.146,43.771,14.146,64.063,0l16.76,12.573l-29.719,37.156
			c-5.417,6.781-8.406,15.302-8.406,23.979v5.208c0,21.167,17.229,38.396,38.49,38.396c12.875,0,24.823-6.396,31.948-17.104
			l37.313-55.969c13.542-20.302,12.802-47.073-1.719-66.448l-39-54.115c3.125-12.104,5.302-24.719,6.51-37.74l38.24,38.24
			c7.5,7.5,17.885,11.802,29.25,11.802c22.219,0,40.302-18.083,40.302-40.302C448,279.104,443.24,268.281,434.948,260.667z M256,384
			c-22.25,0-43.583-25.219-55.135-64h110.271C299.583,358.781,278.25,384,256,384z"/>
	</g>
</g>
<g>
</g>
<g>
</g>
<g>
</g>
<g>
</g>
<g>
</g>
<g>
</g>
<g>
</g>
<g>
</g>
<g>
</g>
<g>
</g>
<g>
</g>
<g>
</g>
<g>
</g>
<g>
</g>
<g>
</g>
</svg>
