<svg id="Capa_1" enable-background="new 0 0 512 512" height="512" viewBox="0 0 512 512" width="512" xmlns="http://www.w3.org/2000/svg"><g><path d="m256 0c-140.61 0-256 115.39-256 256s115.39 256 256 256 256-115.39 256-256-115.39-256-256-256zm116.673 118.114c5.858-5.858 15.355-5.858 21.213 0s5.858 15.355 0 21.213-15.355 5.858-21.213 0-5.858-15.355 0-21.213zm-131.673-42.114c0-8.291 6.709-15 15-15s15 6.709 15 15v30c0 8.291-6.709 15-15 15s-15-6.709-15-15zm-165 195c-8.291 0-15-6.709-15-15s6.709-15 15-15h30c8.291 0 15 6.709 15 15s-6.709 15-15 15zm63.327 122.886c-5.858 5.858-15.355 5.858-21.213 0s-5.858-15.355 0-21.213c5.858-5.859 15.355-5.859 21.213 0 5.858 5.858 5.858 15.355 0 21.213zm0-254.559c-5.858 5.858-15.355 5.858-21.213 0s-5.858-15.355 0-21.213 15.355-5.858 21.213 0 5.858 15.355 0 21.213zm131.673 296.673c0 8.291-6.709 15-15 15s-15-6.709-15-15v-30c0-8.291 6.709-15 15-15s15 6.709 15 15zm85.605-79.395c-5.859 5.859-15.352 5.859-21.211 0l-90-90c-2.812-2.812-4.394-6.621-4.394-10.605v-90c0-8.291 6.709-15 15-15s15 6.709 15 15v83.789l85.605 85.605c5.86 5.86 5.86 15.352 0 21.211zm37.281 37.281c-5.858 5.858-15.355 5.858-21.213 0s-5.858-15.355 0-21.213c5.858-5.859 15.355-5.859 21.213 0 5.857 5.858 5.857 15.355 0 21.213zm57.114-137.886c0 8.291-6.709 15-15 15h-30c-8.291 0-15-6.709-15-15s6.709-15 15-15h30c8.291 0 15 6.709 15 15z"/></g></svg>