<svg id="Layer_1" enable-background="new 0 0 482 482" height="512" viewBox="0 0 482 482" width="512" xmlns="http://www.w3.org/2000/svg"><path d="m409 0h-336c-22.644 0-41 18.356-41 41v42c0 4.418 3.582 8 8 8h356.692c4.794 0 8.979 3.618 9.289 8.401.339 5.242-3.812 9.599-8.981 9.599h-357c-4.418 0-8 3.582-8 8v324c0 22.644 18.356 41 41 41h336c22.644 0 41-18.356 41-41v-400c0-22.644-18.356-41-41-41zm-251 65h-14c-4.971 0-9-4.029-9-9s4.029-9 9-9h14c4.971 0 9 4.029 9 9s-4.029 9-9 9zm109 0h-52c-4.971 0-9-4.029-9-9s4.029-9 9-9h52c4.971 0 9 4.029 9 9s-4.029 9-9 9zm71 0h-14c-4.971 0-9-4.029-9-9s4.029-9 9-9h14c4.971 0 9 4.029 9 9s-4.029 9-9 9zm-45.938 75.531c4.418-2.282 9.846-.551 12.127 3.866l17.808 34.473c2.281 4.416.551 9.845-3.865 12.126-4.426 2.285-9.85.543-12.127-3.866l-17.808-34.473c-2.282-4.416-.551-9.845 3.865-12.126zm-60.062 12.469c0-4.971 4.029-9 9-9s9 4.029 9 9v48c0 4.971-4.029 9-9 9s-9-4.029-9-9zm-72.996 25.87 17.808-34.473c2.28-4.416 7.708-6.149 12.127-3.866 4.416 2.281 6.146 7.71 3.865 12.126l-17.808 34.473c-2.281 4.417-7.711 6.147-12.127 3.866s-6.146-7.71-3.865-12.126zm11.996 250.13c-48.523 0-88-39.477-88-88s39.477-88 88-88 88 39.477 88 88-39.477 88-88 88zm98.93-4.868c-4.694 1.633-9.824-.846-11.458-5.542-1.634-4.694.848-9.824 5.542-11.458 28.104-9.779 46.986-36.356 46.986-66.132s-18.882-56.352-46.986-66.131c-4.694-1.633-7.176-6.763-5.542-11.458 1.634-4.694 6.758-7.177 11.458-5.542 35.332 12.294 59.07 45.701 59.07 83.131s-23.738 70.838-59.07 83.132zm70 0c-4.694 1.633-9.824-.846-11.458-5.542-1.634-4.694.848-9.824 5.542-11.458 28.104-9.779 46.986-36.356 46.986-66.132s-18.882-56.352-46.986-66.131c-4.694-1.633-7.176-6.763-5.542-11.458 1.634-4.694 6.758-7.177 11.458-5.542 35.332 12.294 59.07 45.701 59.07 83.131s-23.738 70.838-59.07 83.132z"/></svg>