<svg id="Layer_1" enable-background="new 0 0 512 512" height="512" viewBox="0 0 512 512" width="512" xmlns="http://www.w3.org/2000/svg"><path id="File" d="m415.851 208c-.004-4.158-1.479-8.254-4.538-11.313l-128-128c-3.059-3.069-7.154-4.558-11.313-4.558v-.129h-96c-44.109 0-80 35.891-80 80v224c0 44.109 35.891 80 80 80h160c44.109 0 80-35.891 80-80v-160zm-127.851-89.375 73.375 73.375h-25.375c-26.469 0-48-21.531-48-48zm48 297.375h-160c-26.469 0-48-21.531-48-48v-224c0-26.469 21.531-48 48-48h80v48c0 44.109 35.891 80 80 80h48v144c0 26.469-21.531 48-48 48zm0-64c0 8.844-7.164 16-16 16h-128c-8.836 0-16-7.156-16-16s7.164-16 16-16h128c8.836 0 16 7.156 16 16zm0-64c0 8.844-7.164 16-16 16h-128c-8.836 0-16-7.156-16-16s7.164-16 16-16h128c8.836 0 16 7.156 16 16zm-160-64c0-8.844 7.164-16 16-16h32c8.836 0 16 7.156 16 16s-7.164 16-16 16h-32c-8.836 0-16-7.156-16-16z"/></svg>