<svg id="Layer_1" height="512" viewBox="0 0 512 512" width="512" xmlns="http://www.w3.org/2000/svg" data-name="Layer 1"><path d="m272.39 184.323h-27.985v46.01h27.985c14.513 0 24.639-9.375 24.639-22.815 0-13.605-10.129-23.195-24.639-23.195z"/><path d="m256 6c-138.071 0-250 111.929-250 250s111.929 250 250 250 250-111.929 250-250-111.929-250-250-250zm23.029 277.667h-34.624v18.433h56.772v42.045h-56.772v36.863h-64.171v-36.865h-28.628v-42.043h28.628v-20.845h-28.628v-47.716h28.628v-102.545h98.795c50.149 0 81.365 29.408 81.365 76.362 0 46.744-31.216 76.311-81.365 76.311z"/></svg>