<svg id="Capa_1" enable-background="new 0 0 512 512" height="512" viewBox="0 0 512 512" width="512" xmlns="http://www.w3.org/2000/svg"><g><path d="m48.022 432h25.979v50h-25.979v30h415.957v-30h-25.978v-50h25.978v-29.999h-415.957z"/><path d="m187.001 183.609h60c0-16.54-13.46-30-30-30s-30 13.46-30 30z"/><path d="m358.001 0v371.998h80v-341.996h25.978v-30z"/><path d="m74.001 371.998h254v-233.389c0-26.47-21.53-48-48-48-22.09 0-40.75 15.01-46.31 35.36 24.99 7.25 43.31 30.35 43.31 57.64v30h-120v-30c0-28.32 19.72-52.12 46.15-58.39 6.37-36.65 38.4-64.61 76.85-64.61 18.08 0 34.75 6.19 48 16.56v-77.169h-279.98v30h25.98zm49.913-91.823h30v49.913h-30z"/></g></svg>