<svg id="svg2132" height="512" viewBox="0 0 16.933333 16.933334" width="512" xmlns="http://www.w3.org/2000/svg" xmlns:svg="http://www.w3.org/2000/svg"><g id="layer1" transform="translate(0 -280.067)"><path id="path3145" d="m8.4441221 280.51918c-.7980363 0-1.559867.29976-2.1404395.82992-.2604479.2384.097155.62908.3576029.39067.4837297-.44173 1.1175047-.69143 1.7828366-.69143.6763199 0 1.3220677.25976 1.8086729.71521.258038.24115.619774-.1459.361736-.38706-.584017-.54662-1.3591938-.85731-2.1704089-.85731zm0 .79478c-.6212444 0-1.2117203.2413-1.6520954.66611-.2587519.24485.1134401.63065.3674189.38086.3424264-.33033.8011478-.51729 1.2846765-.51729.4844388.00001.944626.18787 1.2872587.51935.2525922.2544.6300812-.13259.3694882-.37879-.4406346-.42629-1.0343332-.67024-1.6567469-.67024zm0 .79323c-.4359064 0-.8521383.17959-1.1518689.4961-.2582518.25664.1428671.63565.384474.36328.1999562-.21115.4765913-.33021.7673949-.33021.2909384 0 .5700051.11889.7699772.33021.2416069.27237.6427257-.10664.3844739-.36328-.2997517-.31676-.7183464-.4961-1.1544511-.4961zm-.015505.78497c-.2891155 0-.5291667.24005-.5291667.52917 0 .28911.2806039.53795.5291667.52968.2485628-.008.5498491-.22548.5451872-.5209-.00466-.29542-.2645834-.52917-.5451872-.53795zm-7.65586289.53692c-.28858182 0-.52968339.2411-.52968339.52968v7.9375h16.40468518v-7.9375c0-.28858-.241101-.52968-.529685-.52968h-6.6316361c-.00445.5716-.4853676 1.0511-1.0578174 1.0511-.5724472 0-1.0528724-.4795-1.0572988-1.0511zm8.56433619 2.57452.3317611.41031-4.2322989 3.43906-.3338301-.40979zm1.5859506.52916.33383.41031-4.2323024 3.43959-.3343461-.41031zm-10.67997018 5.89267v.52917c0 .28858.24110157.52916.52968339.52916h11.49025579 3.855061c.288584 0 .529685-.24058.529685-.52916v-.52917zm4.19302608 1.58595-.673861 1.85363h-1.6675981c-.3450637.008-.3450637.52154 0 .52917h12.6994842c.345065-.008.345065-.52154 0-.52917h-1.667081l-.672828-1.85363h-.563274l.674378 1.85363h-8.2398076l.6728275-1.85363z" font-variant-ligatures="normal" font-variant-position="normal" font-variant-caps="normal" font-variant-numeric="normal" font-variant-alternates="normal" font-feature-settings="normal" text-indent="0" text-align="start" text-decoration-line="none" text-decoration-style="solid" text-decoration-color="rgb(0,0,0)" text-transform="none" text-orientation="mixed" white-space="normal" shape-padding="0" isolation="auto" mix-blend-mode="normal" solid-color="rgb(0,0,0)" solid-opacity="1" vector-effect="none" paint-order="stroke fill markers"/></g></svg>