<svg height="512pt" viewBox="-30 0 512 512" width="512pt" xmlns="http://www.w3.org/2000/svg"><path d="m0 0v512h210.945312v-512zm158.585938 278.664062c-8.410157 0-14.636719-6.871093-15-15-.363282-8.097656 7.152343-15 15-15 8.40625 0 14.636718 6.875 15 15 .363281 8.101563-7.152344 15-15 15zm0 0"/><path d="m451.890625 307.003906v-307.003906h-210.945313v307.003906zm-48.246094-163.785156c8.410157 0 14.636719 6.875 15 15 .363281 8.101562-7.152343 15-15 15-8.40625 0-14.632812-6.871094-15-15-.363281-8.097656 7.15625-15 15-15zm0 0"/><path d="m240.945312 337.003906v72.777344h210.945313v-72.777344zm107.566407 51.246094c-8.410157 0-14.636719-6.871094-15-15-.363281-8.101562 7.152343-15 15-15 8.410156 0 14.636719 6.875 15 15 .363281 8.101562-7.152344 15-15 15zm0 0"/><path d="m240.945312 512h210.945313v-72.21875h-210.945313zm107.566407-51.148438c8.410156 0 14.636719 6.871094 15 15 .363281 8.097657-7.15625 15-15 15-8.410157 0-14.636719-6.875-15-15-.363281-8.101562 7.152343-15 15-15zm0 0"/></svg>